<svg width="1471" height="383" viewBox="0 0 1471 383" fill="none" xmlns="http://www.w3.org/2000/svg">
<path fill-rule="evenodd" clip-rule="evenodd" d="M0 0H1470.69V36.36H0V0V0ZM0 346.03H1470.69V382.38H0V346.03V346.03ZM4.05002 47.73H149.83C213.76 47.73 266.34 101.75 268.84 168.76V209.57C268.84 279.02 215.3 335.88 149.64 335.88H4.05002V47.73V47.73ZM104.19 132H118.06C133.85 132 161.19 139.31 161.19 182.16V196.57C160.61 238.2 133.65 245.31 118.06 245.31H104.19V132V132ZM426.94 188.04V253.03H364.74V271.71H436.57V336.08H283.86V105H436.57V169.36H364.74V188.04H426.94V188.04ZM436.57 47.73H542.1L567.33 169.77L592.56 47.73H685.57L710.8 169.77L736.02 47.73H841.55L767.61 336.08H668.43L639.16 211.6V210.58V211.2L638.96 210.58V211.6L609.7 336.08H510.52L436.57 47.73V47.73ZM791.49 336.08H899.14L908.76 290.8L936.11 291L963.45 290.8L973.08 336.08H1080.73L991.38 47.73H880.85L791.49 336.08V336.08ZM936.11 163.27L923.01 222.57H949.2L936.11 163.27V163.27ZM1087.28 47.73H1193.77V245.11H1276.97V336.08H1087.28V47.73ZM1239.99 47.73H1466.46L1466.65 48.34V128.14H1406.96H1406.57V336.08H1299.69V128.14H1239.6V48.5399L1239.99 47.73ZM1470.11 312.32C1470.11 318.81 1467.8 324.51 1463.57 329.18C1459.14 333.65 1453.74 336.08 1447.58 336.08C1441.42 336.08 1436.03 333.65 1431.6 329.18C1427.18 324.51 1425.06 318.82 1425.06 312.33C1425.06 305.82 1427.17 300.14 1431.6 295.47C1436.03 290.8 1441.42 288.56 1447.58 288.56C1453.74 288.56 1459.14 290.8 1463.57 295.47C1467.8 300.13 1470.11 305.83 1470.11 312.33V312.32ZM1467.62 312.32C1467.62 306.44 1465.68 301.56 1461.64 297.3C1457.79 293.23 1453.17 291.2 1447.58 291.2C1442 291.2 1437.38 293.24 1433.33 297.3C1429.48 301.56 1427.55 306.44 1427.55 312.33C1427.55 318.21 1429.48 323.09 1433.33 327.15C1437.38 331.41 1442 333.44 1447.58 333.44C1453.17 333.44 1457.79 331.41 1461.64 327.15C1465.69 323.09 1467.62 318.21 1467.62 312.33V312.32ZM1439.31 298.72H1448.55C1452.02 298.72 1454.51 299.33 1456.06 300.75C1457.4 301.97 1458.17 303.59 1458.17 305.62C1458.17 307.65 1457.4 309.48 1455.86 310.7C1454.71 311.71 1453.17 312.52 1450.86 312.73C1452.02 313.34 1452.59 313.75 1452.98 314.15C1453.36 314.55 1454.13 315.37 1454.91 316.58C1455.68 317.8 1456.44 318.82 1456.83 319.63L1459.33 324.31H1455.48L1452.98 320.04C1451.24 316.79 1449.9 314.76 1448.93 314.15C1447.97 313.53 1446.42 313.13 1444.31 313.13H1442.39V324.31H1439.31V298.72V298.72ZM1442.39 301.35V310.29H1445.46C1448.75 310.29 1451.05 310.08 1452.2 309.68C1452.98 309.48 1453.55 309.07 1454.13 308.26C1454.71 307.45 1454.91 306.64 1454.91 305.83C1454.91 304.6 1454.51 303.59 1453.55 302.78C1452.78 301.76 1450.47 301.35 1447.01 301.35H1442.39V301.35Z" fill="#FEBD17"/>
</svg>
