<svg width="332" height="303" viewBox="0 0 332 303" fill="none" xmlns="http://www.w3.org/2000/svg">
<path fill-rule="evenodd" clip-rule="evenodd" d="M242.396 17.1315C247.046 16.4388 251.677 16.403 256.191 16.9656L260.787 0L276.295 4.6322L271.734 21.4648C276.173 23.5422 280.335 26.2436 284.095 29.4968L296.717 17.8451L307.363 30.5594L294.856 42.1043C297.465 46.2917 299.579 50.9103 301.088 55.8969L317.712 53.2819L320.101 70.0241L303.633 72.6145C303.67 77.7872 303.024 82.8765 301.761 87.7562L317.077 95.0107L310.448 110.442L295.255 103.246C292.662 107.54 289.517 111.475 285.886 114.92L295.016 129.725L281.482 138.926L272.429 124.245C269.97 125.435 267.393 126.444 264.71 127.253C262.652 127.873 260.588 128.358 258.526 128.714L258.562 146.357L242.439 146.393L242.404 128.907C237.553 128.189 232.849 126.778 228.415 124.746L219.339 139.602L205.768 130.461L214.764 115.736C211.112 112.432 207.861 108.595 205.136 104.295L189.855 111.614L183.164 96.2121L198.327 88.9491C198.293 88.8279 198.257 88.7083 198.224 88.5866C196.881 83.6767 196.202 78.7319 196.131 73.858L179.51 71.3184L181.832 54.5657L198.318 57.0848C199.699 52.1741 201.708 47.4888 204.276 43.1618L191.605 31.5632L202.199 18.8021L214.754 30.2945C218.382 27.0023 222.466 24.1872 226.946 21.9748L222.281 5.0253L237.77 0.3251L242.396 17.1315ZM249.806 44.6739C264.808 44.6739 276.97 57.4438 276.97 73.1963C276.97 88.9487 264.808 101.718 249.806 101.718C234.803 101.718 222.642 88.9487 222.642 73.1963C222.642 57.4438 234.803 44.6739 249.806 44.6739ZM251.345 178.905C272.015 178.905 288.771 196.498 288.771 218.201C288.771 239.905 272.015 257.499 251.345 257.499C230.676 257.499 213.92 239.905 213.92 218.201C213.92 196.498 230.676 178.905 251.345 178.905ZM241.695 150.872C247.718 149.913 253.716 149.868 259.546 150.652L263.621 133.803L279.134 137.94L275.048 154.833C280.607 157.131 285.846 160.223 290.603 164.018L302.167 151.555L313.631 163.282L302.058 175.756C305.723 180.58 308.803 185.984 311.15 191.886L327.094 187.165L331.438 203.34L315.47 208.069C316.384 214.392 316.427 220.692 315.68 226.813L331.725 231.091L327.785 247.38L311.698 243.09C309.509 248.927 306.564 254.428 302.95 259.424L314.818 271.564L303.649 283.602L291.77 271.45C287.176 275.299 282.028 278.533 276.407 280.998L280.904 297.738L265.499 302.299L260.996 285.533C254.973 286.492 248.974 286.538 243.144 285.754L239.069 302.6L223.556 298.463L227.642 281.572C222.082 279.273 216.843 276.181 212.086 272.386L200.524 284.848L189.059 273.121L200.632 260.648C196.966 255.824 193.886 250.419 191.539 244.517L175.596 249.238L171.252 233.063L187.22 228.335C186.306 222.011 186.263 215.712 187.01 209.59L170.965 205.311L174.905 189.023L190.992 193.313C193.181 187.476 196.126 181.975 199.741 176.979L187.872 164.839L199.041 152.801L210.92 164.952C215.514 161.104 220.662 157.87 226.283 155.405L221.787 138.665L237.191 134.104L241.695 150.872ZM99.1733 17.2945H120.602H156.316H158.697V286.717H120.602V49.5517H99.1733V17.2945ZM46.869 236.652H85.1033V287.17H75.36V245.189H56.6124V287.17H46.869V236.652ZM0 236.652H10.9417L22.141 262.804L31.7276 236.652H41.863L25.5904 275.046C23.8209 279.209 22.0178 282.372 20.1811 284.547C18.3445 286.723 15.9814 287.805 13.0696 287.805C10.2026 287.805 7.96267 287.605 6.35 287.217V279.62C7.72752 279.714 8.97066 279.761 10.0793 279.761C12.3192 279.761 13.9319 279.326 14.9063 278.468C15.8694 277.598 16.8102 275.728 17.6949 272.87L0 236.652Z" fill="#FEBD17"/>
</svg>
